<?xml version="1.0" encoding="UTF-8"?>
<!DOCTYPE svg PUBLIC "-//W3C//DTD SVG 1.1//EN" "http://www.w3.org/Graphics/SVG/1.1/DTD/svg11.dtd">
<svg width="498mm" height="234mm" viewBox="0 0 49800 23400" version="1.1" xmlns="http://www.w3.org/2000/svg" xmlns:xlink="http://www.w3.org/1999/xlink" stroke-width="28.222" stroke-linejoin="round" xml:space="preserve">
 <path fill="rgb(255,255,255)" stroke="none" d="M 24878,23401 L 0,23401 0,0 49755,0 49755,23401 24878,23401 Z"/>
 <path fill="none" stroke="rgb(179,179,179)" stroke-linejoin="round" d="M 22858,21305 L 2813,21305 2813,667 42903,667 42903,21305 22858,21305 Z"/>
 <path fill="none" stroke="rgb(179,179,179)" stroke-linejoin="round" d="M 2813,666 L 2813,21304"/>
 <path fill="none" stroke="rgb(179,179,179)" stroke-linejoin="round" d="M 7267,666 L 7267,21304"/>
 <path fill="none" stroke="rgb(179,179,179)" stroke-linejoin="round" d="M 11722,666 L 11722,21304"/>
 <path fill="none" stroke="rgb(179,179,179)" stroke-linejoin="round" d="M 16176,666 L 16176,21304"/>
 <path fill="none" stroke="rgb(179,179,179)" stroke-linejoin="round" d="M 20631,666 L 20631,21304"/>
 <path fill="none" stroke="rgb(179,179,179)" stroke-linejoin="round" d="M 25084,666 L 25084,21304"/>
 <path fill="none" stroke="rgb(179,179,179)" stroke-linejoin="round" d="M 29539,666 L 29539,21304"/>
 <path fill="none" stroke="rgb(179,179,179)" stroke-linejoin="round" d="M 33993,666 L 33993,21304"/>
 <path fill="none" stroke="rgb(179,179,179)" stroke-linejoin="round" d="M 38448,666 L 38448,21304"/>
 <path fill="none" stroke="rgb(179,179,179)" stroke-linejoin="round" d="M 42903,666 L 42903,21304"/>
 <path fill="none" stroke="rgb(179,179,179)" stroke-linejoin="round" d="M 42903,21304 L 2813,21304"/>
 <path fill="none" stroke="rgb(179,179,179)" stroke-linejoin="round" d="M 42903,17176 L 2813,17176"/>
 <path fill="none" stroke="rgb(179,179,179)" stroke-linejoin="round" d="M 42903,13048 L 2813,13048"/>
 <path fill="none" stroke="rgb(179,179,179)" stroke-linejoin="round" d="M 42903,8921 L 2813,8921"/>
 <path fill="none" stroke="rgb(179,179,179)" stroke-linejoin="round" d="M 42903,4793 L 2813,4793"/>
 <path fill="none" stroke="rgb(179,179,179)" stroke-linejoin="round" d="M 42903,666 L 2813,666"/>
 <path fill="none" stroke="rgb(179,179,179)" stroke-linejoin="round" d="M 2813,21454 L 2813,21304"/>
 <path fill="none" stroke="rgb(179,179,179)" stroke-linejoin="round" d="M 2813,21454 L 2813,21304"/>
 <path fill="none" stroke="rgb(179,179,179)" stroke-linejoin="round" d="M 7267,21454 L 7267,21304"/>
 <path fill="none" stroke="rgb(179,179,179)" stroke-linejoin="round" d="M 7267,21454 L 7267,21304"/>
 <path fill="none" stroke="rgb(179,179,179)" stroke-linejoin="round" d="M 11722,21454 L 11722,21304"/>
 <path fill="none" stroke="rgb(179,179,179)" stroke-linejoin="round" d="M 11722,21454 L 11722,21304"/>
 <path fill="none" stroke="rgb(179,179,179)" stroke-linejoin="round" d="M 16176,21454 L 16176,21304"/>
 <path fill="none" stroke="rgb(179,179,179)" stroke-linejoin="round" d="M 16176,21454 L 16176,21304"/>
 <path fill="none" stroke="rgb(179,179,179)" stroke-linejoin="round" d="M 20631,21454 L 20631,21304"/>
 <path fill="none" stroke="rgb(179,179,179)" stroke-linejoin="round" d="M 20631,21454 L 20631,21304"/>
 <path fill="none" stroke="rgb(179,179,179)" stroke-linejoin="round" d="M 25084,21454 L 25084,21304"/>
 <path fill="none" stroke="rgb(179,179,179)" stroke-linejoin="round" d="M 25084,21454 L 25084,21304"/>
 <path fill="none" stroke="rgb(179,179,179)" stroke-linejoin="round" d="M 29539,21454 L 29539,21304"/>
 <path fill="none" stroke="rgb(179,179,179)" stroke-linejoin="round" d="M 29539,21454 L 29539,21304"/>
 <path fill="none" stroke="rgb(179,179,179)" stroke-linejoin="round" d="M 33993,21454 L 33993,21304"/>
 <path fill="none" stroke="rgb(179,179,179)" stroke-linejoin="round" d="M 33993,21454 L 33993,21304"/>
 <path fill="none" stroke="rgb(179,179,179)" stroke-linejoin="round" d="M 38448,21454 L 38448,21304"/>
 <path fill="none" stroke="rgb(179,179,179)" stroke-linejoin="round" d="M 38448,21454 L 38448,21304"/>
 <path fill="none" stroke="rgb(179,179,179)" stroke-linejoin="round" d="M 42903,21454 L 42903,21304"/>
 <path fill="none" stroke="rgb(179,179,179)" stroke-linejoin="round" d="M 42903,21454 L 42903,21304"/>
 <path fill="none" stroke="rgb(179,179,179)" stroke-linejoin="round" d="M 2813,21304 L 42903,21304"/>
 <path fill="none" stroke="rgb(179,179,179)" stroke-linejoin="round" d="M 2663,21304 L 2813,21304"/>
 <path fill="none" stroke="rgb(179,179,179)" stroke-linejoin="round" d="M 2663,21304 L 2813,21304"/>
 <path fill="none" stroke="rgb(179,179,179)" stroke-linejoin="round" d="M 2663,17176 L 2813,17176"/>
 <path fill="none" stroke="rgb(179,179,179)" stroke-linejoin="round" d="M 2663,17176 L 2813,17176"/>
 <path fill="none" stroke="rgb(179,179,179)" stroke-linejoin="round" d="M 2663,13048 L 2813,13048"/>
 <path fill="none" stroke="rgb(179,179,179)" stroke-linejoin="round" d="M 2663,13048 L 2813,13048"/>
 <path fill="none" stroke="rgb(179,179,179)" stroke-linejoin="round" d="M 2663,8921 L 2813,8921"/>
 <path fill="none" stroke="rgb(179,179,179)" stroke-linejoin="round" d="M 2663,8921 L 2813,8921"/>
 <path fill="none" stroke="rgb(179,179,179)" stroke-linejoin="round" d="M 2663,4793 L 2813,4793"/>
 <path fill="none" stroke="rgb(179,179,179)" stroke-linejoin="round" d="M 2663,4793 L 2813,4793"/>
 <path fill="none" stroke="rgb(179,179,179)" stroke-linejoin="round" d="M 2663,666 L 2813,666"/>
 <path fill="none" stroke="rgb(179,179,179)" stroke-linejoin="round" d="M 2663,666 L 2813,666"/>
 <path fill="none" stroke="rgb(179,179,179)" stroke-linejoin="round" d="M 2813,21304 L 2813,666"/>
 <path fill="none" stroke="rgb(255,211,32)" stroke-width="80" stroke-linejoin="round" d="M 3537,21056 L 3593,19487 5537,18084 10243,8921 39960,6692"/>
 <path fill="none" stroke="rgb(255,66,14)" stroke-width="80" stroke-linejoin="round" d="M 3537,21056 L 3593,19405 5537,18001 10243,8178 39960,5454"/>
 <path fill="none" stroke="rgb(0,69,134)" stroke-width="80" stroke-linejoin="round" d="M 3537,21056 L 3593,19322 5537,17919 10243,7683 39960,5124"/>
 <path fill="none" stroke="rgb(255,211,32)" stroke-linejoin="round" d="M 3537,17932 L 42903,4498"/>
 <path fill="none" stroke="rgb(255,66,14)" stroke-linejoin="round" d="M 3537,17791 L 42903,3101"/>
 <path fill="none" stroke="rgb(0,69,134)" stroke-linejoin="round" d="M 3537,17654 L 42903,2697"/>
 <text class="TextShape"><tspan class="TextParagraph" font-family="Liberation Sans, sans-serif" font-size="353px" font-weight="400"><tspan class="TextPosition" x="2720" y="21872"><tspan fill="rgb(0,0,0)" stroke="none">0</tspan></tspan></tspan></text>
 <text class="TextShape"><tspan class="TextParagraph" font-family="Liberation Sans, sans-serif" font-size="353px" font-weight="400"><tspan class="TextPosition" x="6896" y="21872"><tspan fill="rgb(0,0,0)" stroke="none">5000</tspan></tspan></tspan></text>
 <text class="TextShape"><tspan class="TextParagraph" font-family="Liberation Sans, sans-serif" font-size="353px" font-weight="400"><tspan class="TextPosition" x="11259" y="21872"><tspan fill="rgb(0,0,0)" stroke="none">10000</tspan></tspan></tspan></text>
 <text class="TextShape"><tspan class="TextParagraph" font-family="Liberation Sans, sans-serif" font-size="353px" font-weight="400"><tspan class="TextPosition" x="15713" y="21872"><tspan fill="rgb(0,0,0)" stroke="none">15000</tspan></tspan></tspan></text>
 <text class="TextShape"><tspan class="TextParagraph" font-family="Liberation Sans, sans-serif" font-size="353px" font-weight="400"><tspan class="TextPosition" x="20168" y="21872"><tspan fill="rgb(0,0,0)" stroke="none">20000</tspan></tspan></tspan></text>
 <text class="TextShape"><tspan class="TextParagraph" font-family="Liberation Sans, sans-serif" font-size="353px" font-weight="400"><tspan class="TextPosition" x="24622" y="21872"><tspan fill="rgb(0,0,0)" stroke="none">25000</tspan></tspan></tspan></text>
 <text class="TextShape"><tspan class="TextParagraph" font-family="Liberation Sans, sans-serif" font-size="353px" font-weight="400"><tspan class="TextPosition" x="29077" y="21872"><tspan fill="rgb(0,0,0)" stroke="none">30000</tspan></tspan></tspan></text>
 <text class="TextShape"><tspan class="TextParagraph" font-family="Liberation Sans, sans-serif" font-size="353px" font-weight="400"><tspan class="TextPosition" x="33531" y="21872"><tspan fill="rgb(0,0,0)" stroke="none">35000</tspan></tspan></tspan></text>
 <text class="TextShape"><tspan class="TextParagraph" font-family="Liberation Sans, sans-serif" font-size="353px" font-weight="400"><tspan class="TextPosition" x="37986" y="21872"><tspan fill="rgb(0,0,0)" stroke="none">40000</tspan></tspan></tspan></text>
 <text class="TextShape"><tspan class="TextParagraph" font-family="Liberation Sans, sans-serif" font-size="353px" font-weight="400"><tspan class="TextPosition" x="42441" y="21872"><tspan fill="rgb(0,0,0)" stroke="none">45000</tspan></tspan></tspan></text>
 <text class="TextShape"><tspan class="TextParagraph" font-family="Liberation Sans, sans-serif" font-size="353px" font-weight="400"><tspan class="TextPosition" x="2378" y="21425"><tspan fill="rgb(0,0,0)" stroke="none">0</tspan></tspan></tspan></text>
 <text class="TextShape"><tspan class="TextParagraph" font-family="Liberation Sans, sans-serif" font-size="353px" font-weight="400"><tspan class="TextPosition" x="2193" y="17297"><tspan fill="rgb(0,0,0)" stroke="none">50</tspan></tspan></tspan></text>
 <text class="TextShape"><tspan class="TextParagraph" font-family="Liberation Sans, sans-serif" font-size="353px" font-weight="400"><tspan class="TextPosition" x="2007" y="13169"><tspan fill="rgb(0,0,0)" stroke="none">100</tspan></tspan></tspan></text>
 <text class="TextShape"><tspan class="TextParagraph" font-family="Liberation Sans, sans-serif" font-size="353px" font-weight="400"><tspan class="TextPosition" x="2007" y="9041"><tspan fill="rgb(0,0,0)" stroke="none">150</tspan></tspan></tspan></text>
 <text class="TextShape"><tspan class="TextParagraph" font-family="Liberation Sans, sans-serif" font-size="353px" font-weight="400"><tspan class="TextPosition" x="2007" y="4913"><tspan fill="rgb(0,0,0)" stroke="none">200</tspan></tspan></tspan></text>
 <text class="TextShape"><tspan class="TextParagraph" font-family="Liberation Sans, sans-serif" font-size="353px" font-weight="400"><tspan class="TextPosition" x="2007" y="786"><tspan fill="rgb(0,0,0)" stroke="none">250</tspan></tspan></tspan></text>
 <path fill="none" stroke="rgb(0,69,134)" stroke-width="80" stroke-linejoin="round" d="M 44479,10455 L 45279,10455"/>
 <path fill="none" stroke="rgb(0,69,134)" stroke-linejoin="round" d="M 44479,10953 L 45279,10953"/>
 <path fill="none" stroke="rgb(255,66,14)" stroke-width="80" stroke-linejoin="round" d="M 44479,11451 L 45279,11451"/>
 <path fill="none" stroke="rgb(255,66,14)" stroke-linejoin="round" d="M 44479,11948 L 45279,11948"/>
 <path fill="none" stroke="rgb(255,211,32)" stroke-width="80" stroke-linejoin="round" d="M 44479,12446 L 45279,12446"/>
 <path fill="none" stroke="rgb(255,211,32)" stroke-linejoin="round" d="M 44479,12944 L 45279,12944"/>
 <text class="TextShape"><tspan class="TextParagraph" font-family="Liberation Sans, sans-serif" font-size="353px" font-weight="400"><tspan class="TextPosition" x="45379" y="10575"><tspan fill="rgb(0,0,0)" stroke="none">Dijkstra</tspan></tspan></tspan></text>
 <text class="TextShape"><tspan class="TextParagraph" font-family="Liberation Sans, sans-serif" font-size="353px" font-weight="400"><tspan class="TextPosition" x="45379" y="11073"><tspan fill="rgb(0,0,0)" stroke="none">Linear (Dijkstra)</tspan></tspan></tspan></text>
 <text class="TextShape"><tspan class="TextParagraph" font-family="Liberation Sans, sans-serif" font-size="353px" font-weight="400"><tspan class="TextPosition" x="45379" y="11571"><tspan fill="rgb(0,0,0)" stroke="none">A*</tspan></tspan></tspan></text>
 <text class="TextShape"><tspan class="TextParagraph" font-family="Liberation Sans, sans-serif" font-size="353px" font-weight="400"><tspan class="TextPosition" x="45379" y="12068"><tspan fill="rgb(0,0,0)" stroke="none">Linear (A*)</tspan></tspan></tspan></text>
 <text class="TextShape"><tspan class="TextParagraph" font-family="Liberation Sans, sans-serif" font-size="353px" font-weight="400"><tspan class="TextPosition" x="45379" y="12566"><tspan fill="rgb(0,0,0)" stroke="none">A* (pessimistinen)</tspan></tspan></tspan></text>
 <text class="TextShape"><tspan class="TextParagraph" font-family="Liberation Sans, sans-serif" font-size="353px" font-weight="400"><tspan class="TextPosition" x="45379" y="13064"><tspan fill="rgb(0,0,0)" stroke="none">Linear (A* (pessimistinen))</tspan></tspan></tspan></text>
 <text class="TextShape"><tspan class="TextParagraph" font-family="Liberation Sans, sans-serif" font-size="318px" font-weight="400"><tspan class="TextPosition" x="21443" y="22807"><tspan fill="rgb(0,0,0)" stroke="none">Pys채kkien m채채r채</tspan></tspan></tspan></text>
 <text class="TextShape" transform="rotate(-90 837 14120)"><tspan class="TextParagraph" font-family="Liberation Sans, sans-serif" font-size="318px" font-weight="400"><tspan class="TextPosition" x="837" y="14120"><tspan fill="rgb(0,0,0)" stroke="none">10 reitin hakuun kulunut aika sekunteina</tspan></tspan></tspan></text>
</svg>